<svg width="800" height="600" viewBox="0 0 800 600" xmlns="http://www.w3.org/2000/svg">
  <!-- Background -->
  <rect width="800" height="600" fill="#1a1a2e"/>
  
  <!-- Gradient overlay -->
  <defs>
    <linearGradient id="grad1" x1="0%" y1="0%" x2="100%" y2="100%">
      <stop offset="0%" style="stop-color:#667eea;stop-opacity:0.1" />
      <stop offset="100%" style="stop-color:#764ba2;stop-opacity:0.1" />
    </linearGradient>
    <linearGradient id="textGrad" x1="0%" y1="0%" x2="100%" y2="0%">
      <stop offset="0%" style="stop-color:#667eea" />
      <stop offset="100%" style="stop-color:#764ba2" />
    </linearGradient>
  </defs>
  <rect width="800" height="600" fill="url(#grad1)"/>
  
  <!-- Main content area -->
  <rect x="50" y="50" width="700" height="500" rx="20" fill="#16213e" stroke="#4a5568" stroke-width="2"/>
  
  <!-- Header -->
  <rect x="70" y="70" width="660" height="80" rx="10" fill="#2d3748"/>
  <text x="400" y="120" font-family="Arial, sans-serif" font-size="24" font-weight="bold" text-anchor="middle" fill="url(#textGrad)">AI Restaurant Name Generator</text>
  
  <!-- AI Brain Icon -->
  <circle cx="150" cy="200" r="40" fill="#4299e1" opacity="0.2"/>
  <path d="M130 180 Q130 160 150 160 Q170 160 170 180 Q170 200 160 210 Q150 220 140 210 Q130 200 130 180 Z" fill="#4299e1"/>
  <circle cx="140" cy="185" r="3" fill="#ffffff"/>
  <circle cx="160" cy="185" r="3" fill="#ffffff"/>
  <path d="M140 200 Q150 210 160 200" stroke="#ffffff" stroke-width="2" fill="none"/>
  
  <!-- Restaurant Icon -->
  <rect x="250" y="170" width="60" height="60" rx="5" fill="#f56565" opacity="0.8"/>
  <rect x="265" y="155" width="30" height="15" rx="2" fill="#f56565"/>
  <circle cx="280" cy="190" r="8" fill="white"/>
  <rect x="270" y="200" width="20" height="15" rx="2" fill="white"/>
  
  <!-- Arrow -->
  <path d="M330 200 L380 200" stroke="#68d391" stroke-width="4" fill="none"/>
  <polygon points="380,195 390,200 380,205" fill="#68d391"/>
  
  <!-- Generated Name Display -->
  <rect x="420" y="170" width="280" height="60" rx="10" fill="#2d3748" stroke="#68d391" stroke-width="2"/>
  <text x="560" y="195" font-family="Arial, sans-serif" font-size="14" text-anchor="middle" fill="#a0aec0">Generated Name:</text>
  <text x="560" y="215" font-family="Arial, sans-serif" font-size="18" font-weight="bold" text-anchor="middle" fill="#68d391">"Bella Vista Bistro"</text>
  
  <!-- Technology badges -->
  <rect x="100" y="280" width="100" height="30" rx="15" fill="#3182ce" opacity="0.8"/>
  <text x="150" y="300" font-family="Arial, sans-serif" font-size="12" text-anchor="middle" fill="white">LangChain</text>
  
  <rect x="220" y="280" width="100" height="30" rx="15" fill="#38a169" opacity="0.8"/>
  <text x="270" y="300" font-family="Arial, sans-serif" font-size="12" text-anchor="middle" fill="white">OpenAI API</text>
  
  <rect x="340" y="280" width="80" height="30" rx="15" fill="#805ad5" opacity="0.8"/>
  <text x="380" y="300" font-family="Arial, sans-serif" font-size="12" text-anchor="middle" fill="white">Python</text>
  
  <rect x="440" y="280" width="80" height="30" rx="15" fill="#d69e2e" opacity="0.8"/>
  <text x="480" y="300" font-family="Arial, sans-serif" font-size="12" text-anchor="middle" fill="white">Streamlit</text>
  
  <!-- Code snippet background -->
  <rect x="100" y="340" width="600" height="120" rx="10" fill="#0d1117" stroke="#21262d" stroke-width="1"/>
  <text x="120" y="365" font-family="Monaco, monospace" font-size="12" fill="#7c3aed">def</text>
  <text x="150" y="365" font-family="Monaco, monospace" font-size="12" fill="#f8f8f2"> generate_restaurant_name(cuisine):</text>
  <text x="130" y="385" font-family="Monaco, monospace" font-size="12" fill="#6272a4"># AI-powered name generation</text>
  <text x="130" y="405" font-family="Monaco, monospace" font-size="12" fill="#f8f8f2">prompt = f"Generate creative restaurant name for {cuisine}"</text>
  <text x="130" y="425" font-family="Monaco, monospace" font-size="12" fill="#50fa7b">response</text>
  <text x="185" y="425" font-family="Monaco, monospace" font-size="12" fill="#f8f8f2"> = openai.completions.create(...)</text>
  <text x="130" y="445" font-family="Monaco, monospace" font-size="12" fill="#ff79c6">return</text>
  <text x="175" y="445" font-family="Monaco, monospace" font-size="12" fill="#f8f8f2"> response.choices[0].text</text>
  
  <!-- Footer text -->
  <text x="400" y="520" font-family="Arial, sans-serif" font-size="14" text-anchor="middle" fill="#a0aec0">AI-Powered Restaurant Naming Solution</text>
</svg>
