<svg width="800" height="600" viewBox="0 0 800 600" xmlns="http://www.w3.org/2000/svg">
  <!-- Background -->
  <rect width="800" height="600" fill="#0f0f23"/>
  
  <!-- Gradient overlay -->
  <defs>
    <linearGradient id="grad2" x1="0%" y1="0%" x2="100%" y2="100%">
      <stop offset="0%" style="stop-color:#667eea;stop-opacity:0.15" />
      <stop offset="50%" style="stop-color:#764ba2;stop-opacity:0.1" />
      <stop offset="100%" style="stop-color:#f093fb;stop-opacity:0.15" />
    </linearGradient>
    <linearGradient id="textGrad2" x1="0%" y1="0%" x2="100%" y2="0%">
      <stop offset="0%" style="stop-color:#667eea" />
      <stop offset="50%" style="stop-color:#764ba2" />
      <stop offset="100%" style="stop-color:#f093fb" />
    </linearGradient>
  </defs>
  <rect width="800" height="600" fill="url(#grad2)"/>
  
  <!-- Main container -->
  <rect x="50" y="50" width="700" height="500" rx="25" fill="#1a1a2e" stroke="#4a5568" stroke-width="2"/>
  
  <!-- Header -->
  <rect x="70" y="70" width="660" height="70" rx="15" fill="#16213e"/>
  <text x="400" y="115" font-family="Arial, sans-serif" font-size="28" font-weight="bold" text-anchor="middle" fill="url(#textGrad2)">Genius AI App</text>
  
  <!-- Central AI Brain -->
  <circle cx="400" cy="220" r="50" fill="#667eea" opacity="0.3"/>
  <circle cx="400" cy="220" r="35" fill="#764ba2" opacity="0.5"/>
  <circle cx="400" cy="220" r="20" fill="#f093fb" opacity="0.7"/>
  
  <!-- Neural network nodes around brain -->
  <circle cx="320" cy="180" r="8" fill="#4299e1"/>
  <circle cx="480" cy="180" r="8" fill="#48bb78"/>
  <circle cx="320" cy="260" r="8" fill="#ed8936"/>
  <circle cx="480" cy="260" r="8" fill="#9f7aea"/>
  <circle cx="360" cy="150" r="6" fill="#38b2ac"/>
  <circle cx="440" cy="150" r="6" fill="#e53e3e"/>
  <circle cx="360" cy="290" r="6" fill="#d69e2e"/>
  <circle cx="440" cy="290" r="6" fill="#38a169"/>
  
  <!-- Connections -->
  <line x1="400" y1="220" x2="320" y2="180" stroke="#4299e1" stroke-width="2" opacity="0.6"/>
  <line x1="400" y1="220" x2="480" y2="180" stroke="#48bb78" stroke-width="2" opacity="0.6"/>
  <line x1="400" y1="220" x2="320" y2="260" stroke="#ed8936" stroke-width="2" opacity="0.6"/>
  <line x1="400" y1="220" x2="480" y2="260" stroke="#9f7aea" stroke-width="2" opacity="0.6"/>
  <line x1="400" y1="220" x2="360" y2="150" stroke="#38b2ac" stroke-width="1" opacity="0.4"/>
  <line x1="400" y1="220" x2="440" y2="150" stroke="#e53e3e" stroke-width="1" opacity="0.4"/>
  <line x1="400" y1="220" x2="360" y2="290" stroke="#d69e2e" stroke-width="1" opacity="0.4"/>
  <line x1="400" y1="220" x2="440" y2="290" stroke="#38a169" stroke-width="1" opacity="0.4"/>
  
  <!-- Feature modules -->
  <!-- Chat Module -->
  <rect x="100" y="300" width="120" height="80" rx="10" fill="#2d3748" stroke="#4299e1" stroke-width="2"/>
  <text x="160" y="325" font-family="Arial, sans-serif" font-size="14" font-weight="bold" text-anchor="middle" fill="#4299e1">💬 Chat</text>
  <text x="160" y="345" font-family="Arial, sans-serif" font-size="11" text-anchor="middle" fill="#a0aec0">Intelligent</text>
  <text x="160" y="360" font-family="Arial, sans-serif" font-size="11" text-anchor="middle" fill="#a0aec0">Conversations</text>
  
  <!-- Code Generation -->
  <rect x="240" y="300" width="120" height="80" rx="10" fill="#2d3748" stroke="#48bb78" stroke-width="2"/>
  <text x="300" y="325" font-family="Arial, sans-serif" font-size="14" font-weight="bold" text-anchor="middle" fill="#48bb78">⚡ Code</text>
  <text x="300" y="345" font-family="Arial, sans-serif" font-size="11" text-anchor="middle" fill="#a0aec0">Generation</text>
  <text x="300" y="360" font-family="Arial, sans-serif" font-size="11" text-anchor="middle" fill="#a0aec0">&amp; Analysis</text>
  
  <!-- Image Generation -->
  <rect x="440" y="300" width="120" height="80" rx="10" fill="#2d3748" stroke="#9f7aea" stroke-width="2"/>
  <text x="500" y="325" font-family="Arial, sans-serif" font-size="14" font-weight="bold" text-anchor="middle" fill="#9f7aea">🎨 Images</text>
  <text x="500" y="345" font-family="Arial, sans-serif" font-size="11" text-anchor="middle" fill="#a0aec0">AI-Generated</text>
  <text x="500" y="360" font-family="Arial, sans-serif" font-size="11" text-anchor="middle" fill="#a0aec0">Artwork</text>
  
  <!-- Music Module -->
  <rect x="580" y="300" width="120" height="80" rx="10" fill="#2d3748" stroke="#ed8936" stroke-width="2"/>
  <text x="640" y="325" font-family="Arial, sans-serif" font-size="14" font-weight="bold" text-anchor="middle" fill="#ed8936">🎵 Audio</text>
  <text x="640" y="345" font-family="Arial, sans-serif" font-size="11" text-anchor="middle" fill="#a0aec0">Voice &amp;</text>
  <text x="640" y="360" font-family="Arial, sans-serif" font-size="11" text-anchor="middle" fill="#a0aec0">Music AI</text>
  
  <!-- Technology stack -->
  <rect x="150" y="420" width="70" height="25" rx="12" fill="#3182ce" opacity="0.8"/>
  <text x="185" y="437" font-family="Arial, sans-serif" font-size="11" text-anchor="middle" fill="white">Next.js</text>
  
  <rect x="240" y="420" width="70" height="25" rx="12" fill="#38a169" opacity="0.8"/>
  <text x="275" y="437" font-family="Arial, sans-serif" font-size="11" text-anchor="middle" fill="white">OpenAI</text>
  
  <rect x="330" y="420" width="80" height="25" rx="12" fill="#805ad5" opacity="0.8"/>
  <text x="370" y="437" font-family="Arial, sans-serif" font-size="11" text-anchor="middle" fill="white">TypeScript</text>
  
  <rect x="430" y="420" width="70" height="25" rx="12" fill="#d69e2e" opacity="0.8"/>
  <text x="465" y="437" font-family="Arial, sans-serif" font-size="11" text-anchor="middle" fill="white">Prisma</text>
  
  <rect x="520" y="420" width="80" height="25" rx="12" fill="#e53e3e" opacity="0.8"/>
  <text x="560" y="437" font-family="Arial, sans-serif" font-size="11" text-anchor="middle" fill="white">Tailwind</text>
  
  <!-- Connection lines from brain to modules -->
  <line x1="350" y1="250" x2="160" y2="300" stroke="#4299e1" stroke-width="2" opacity="0.3"/>
  <line x1="380" y1="270" x2="300" y2="300" stroke="#48bb78" stroke-width="2" opacity="0.3"/>
  <line x1="420" y1="270" x2="500" y2="300" stroke="#9f7aea" stroke-width="2" opacity="0.3"/>
  <line x1="450" y1="250" x2="640" y2="300" stroke="#ed8936" stroke-width="2" opacity="0.3"/>
  
  <!-- Footer -->
  <text x="400" y="480" font-family="Arial, sans-serif" font-size="14" text-anchor="middle" fill="#a0aec0">Multi-Purpose AI Application Suite</text>
  <text x="400" y="500" font-family="Arial, sans-serif" font-size="12" text-anchor="middle" fill="#718096">Powered by Advanced Machine Learning Models</text>
</svg>
